<svg width="366" height="198" viewBox="0 0 366 198" fill="none" xmlns="http://www.w3.org/2000/svg">
<path d="M6.83551 189.624L150.797 72.735L207.794 133.175L345.529 20.277" stroke="#6A0DAD" stroke-width="20"/>
<path d="M347.615 75.2426L288.892 7.69024L364.711 1.08101L347.615 75.2426Z" fill="#6A0DAD" stroke="#6A0DAD"/>
<path d="M176 30C219.174 30 257.764 39.2065 285.197 53.6045C313.098 68.2484 327 86.7405 327 104.5C327 122.26 313.098 140.752 285.197 155.396C257.764 169.793 219.174 179 176 179C132.826 179 94.2355 169.793 66.8027 155.396C38.9015 140.752 25 122.26 25 104.5C25 86.7405 38.9015 68.2484 66.8027 53.6045C94.2355 39.2065 132.826 30 176 30Z" stroke="#6A0DAD" stroke-width="20"/>
</svg>
